<svg width="300" height="300" viewBox="0 0 300 300" fill="none" xmlns="http://www.w3.org/2000/svg">
<path fill-rule="evenodd" clip-rule="evenodd" d="M128.935 39H171.065V60.2207H192.26V78.1768H205.304V112.457H233.022V130.413H263.999V264H35.9993V181.015H57.1945V112.458H94.6945V78.1777H107.739V60.2217H128.934L128.935 39ZM131.935 60.2207H168.065V42H131.935V60.2207ZM110.74 78.1768H189.262V63.2207H110.74V78.1768ZM94.6958 115.457H60.1958V181.014H94.6958V115.457ZM94.6958 184.014H39.0008V260.999H94.6958V184.014ZM97.6958 260.999H121.598V238.146H178.403V260.999H202.305V81.1768H97.6953L97.6958 260.999ZM205.306 260.999H261.001V133.412H205.306V260.999ZM205.306 130.412H230.023V115.456H205.306V130.412ZM175.403 260.999V241.146H124.598V260.999H175.403ZM111.001 99.3968H127.044V115.455H111.001V99.3968ZM114.001 102.397V112.455H124.044V102.397H114.001ZM132.196 99.3968H148.24V115.455H132.196V99.3968ZM135.196 102.397V112.455H145.24V102.397H135.196ZM153.392 99.3968H169.435V115.455H153.392V99.3968ZM156.392 102.397V112.455H166.435V102.397H156.392ZM174.588 99.3968H190.632V115.455H174.588V99.3968ZM177.588 102.397V112.455H187.632V102.397H177.588ZM66.98 117.352H78.1323V130.147H66.98V117.352ZM69.98 120.352V127.147H75.1323V120.352H69.98ZM80.023 117.352H91.1753V130.147H80.023V117.352ZM83.023 120.352V127.147H88.1753V120.352H83.023ZM111.001 127.147H127.044V143.205H111.001V127.147ZM114.001 130.147V140.205H124.044V130.147H114.001ZM132.196 127.147H148.24V143.205H132.196V127.147ZM135.196 130.147V140.205H145.24V130.147H135.196ZM153.392 127.147H169.435V143.205H153.392V127.147ZM156.392 130.147V140.205H166.435V130.147H156.392ZM174.587 127.147H190.631V143.205H174.587V127.147ZM177.587 130.147V140.205H187.631V130.147H177.587ZM66.9798 133.676H78.132V146.47H66.9798V133.676ZM69.9798 136.676V143.47H75.132V136.676H69.9798ZM80.0228 133.676H91.175V146.47H80.0228V133.676ZM83.0228 136.676V143.47H88.175V136.676H83.0228ZM208.828 140.205H223.241V152.999H208.828V140.205ZM211.828 143.205V149.999H220.241V143.205H211.828ZM225.133 140.205H239.545V152.999H225.133V140.205ZM228.133 143.205V149.999H236.545V143.205H228.133ZM241.436 140.205H255.849V152.999H241.436V140.205ZM244.436 143.205V149.999H252.849V143.205H244.436ZM66.9813 149.999H78.1335V162.793H66.9813V149.999ZM69.9813 152.999V159.793H75.1335V152.999H69.9813ZM80.0243 149.999H91.1765V162.793H80.0243V149.999ZM83.0243 152.999V159.793H88.1765V152.999H83.0243ZM111.002 156.529H127.045V172.587H111.002V156.529ZM114.002 159.529V169.587H124.045V159.529H114.002ZM132.197 156.529H148.241V172.587H132.197V156.529ZM135.197 159.529V169.587H145.241V159.529H135.197ZM153.393 156.529H169.436V172.587H153.393V156.529ZM156.393 159.529V169.587H166.436V159.529H156.393ZM174.589 156.529H190.633V172.587H174.589V156.529ZM177.589 159.529V169.587H187.633V159.529H177.589ZM208.829 159.793H223.242V172.587H208.829V159.793ZM211.829 162.793V169.587H220.242V162.793H211.829ZM225.133 159.793H239.545V172.587H225.133V159.793ZM228.133 162.793V169.587H236.545V162.793H228.133ZM241.437 159.793H255.85V172.587H241.437V159.793ZM244.437 162.793V169.587H252.85V162.793H244.437ZM66.982 166.322H78.1343V179.117H66.982V166.322ZM69.982 169.322V176.117H75.1343V169.322H69.982ZM80.025 166.322H91.1773V179.117H80.025V166.322ZM83.025 169.322V176.117H88.1773V169.322H83.025ZM208.83 179.381H223.243V192.176H208.83V179.381ZM211.83 182.381V189.176H220.243V182.381H211.83ZM225.135 179.381H239.547V192.176H225.135V179.381ZM228.135 182.381V189.176H236.547V182.381H228.135ZM241.439 179.381H255.852V192.176H241.439V179.381ZM244.439 182.381V189.176H252.852V182.381H244.439ZM111.004 184.278H127.047V200.337H111.004V184.278ZM114.004 187.278V197.337H124.047V187.278H114.004ZM132.199 184.278H148.243V200.337H132.199V184.278ZM135.199 187.278V197.337H145.243V187.278H135.199ZM153.395 184.278H169.438V200.337H153.395V184.278ZM156.395 187.278V197.337H166.438V187.278H156.395ZM174.59 184.278H190.634V200.337H174.59V184.278ZM177.59 187.278V197.337H187.634V187.278H177.59ZM40.8953 189.176H52.0465V201.97H40.8953V189.176ZM43.8953 192.176V198.97H49.0465V192.176H43.8953ZM53.9383 189.176H65.0905V201.97H53.9383V189.176ZM56.9383 192.176V198.97H62.0905V192.176H56.9383ZM66.9823 189.176H78.1345V201.97H66.9823V189.176ZM69.9823 192.176V198.97H75.1345V192.176H69.9823ZM80.0253 189.176H91.1775V201.97H80.0253V189.176ZM83.0253 192.176V198.97H88.1775V192.176H83.0253ZM208.83 198.97H223.243V211.764H208.83V198.97ZM211.83 201.97V208.764H220.243V201.97H211.83ZM225.135 198.97H239.547V211.764H225.135V198.97ZM228.135 201.97V208.764H236.547V201.97H228.135ZM241.439 198.97H255.852V211.764H241.439V198.97ZM244.439 201.97V208.764H252.852V201.97H244.439ZM40.8963 205.499H52.0475V218.293H40.8963V205.499ZM43.8963 208.499V215.293H49.0475V208.499H43.8963ZM53.9393 205.499H65.0915V218.293H53.9393V205.499ZM56.9393 208.499V215.293H62.0915V208.499H56.9393ZM66.9833 205.499H78.1355V218.293H66.9833V205.499ZM69.9833 208.499V215.293H75.1355V208.499H69.9833ZM80.0263 205.499H91.1785V218.293H80.0263V205.499ZM83.0263 208.499V215.293H88.1785V208.499H83.0263ZM111.004 212.028H127.047V228.087H111.004V212.028ZM114.004 215.028V225.087H124.047V215.028H114.004ZM132.199 212.028H148.243V228.087H132.199V212.028ZM135.199 215.028V225.087H145.243V215.028H135.199ZM153.395 212.028H169.438V228.087H153.395V212.028ZM156.395 215.028V225.087H166.438V215.028H156.395ZM174.591 212.028H190.635V228.087H174.591V212.028ZM177.591 215.028V225.087H187.635V215.028H177.591ZM208.831 218.558H223.244V231.352H208.831V218.558ZM211.831 221.558V228.352H220.244V221.558H211.831ZM225.135 218.558H239.547V231.352H225.135V218.558ZM228.135 221.558V228.352H236.547V221.558H228.135ZM241.439 218.558H255.852V231.352H241.439V218.558ZM244.439 221.558V228.352H252.852V221.558H244.439ZM40.8965 221.822H52.0478V234.617H40.8965V221.822ZM43.8965 224.822V231.617H49.0478V224.822H43.8965ZM53.9395 221.822H65.0918V234.617H53.9395V221.822ZM56.9395 224.822V231.617H62.0918V224.822H56.9395ZM66.9835 221.822H78.1358V234.617H66.9835V221.822ZM69.9835 224.822V231.617H75.1358V224.822H69.9835ZM80.0265 221.822H91.1788V234.617H80.0265V221.822ZM83.0265 224.822V231.617H88.1788V224.822H83.0265ZM40.8965 238.145H52.0478V250.94H40.8965V238.145ZM43.8965 241.145V247.94H49.0478V241.145H43.8965ZM53.9395 238.145H65.0918V250.94H53.9395V238.145ZM56.9395 241.145V247.94H62.0918V241.145H56.9395ZM66.9835 238.145H78.1358V250.94H66.9835V238.145ZM69.9835 241.145V247.94H75.1358V241.145H69.9835ZM80.0265 238.145H91.1788V250.94H80.0265V238.145ZM83.0265 241.145V247.94H88.1788V241.145H83.0265Z" fill="#353535"/>
</svg>
