<svg width="300" height="300" viewBox="0 0 300 300" fill="none" xmlns="http://www.w3.org/2000/svg">
<path fill-rule="evenodd" clip-rule="evenodd" d="M103.263 66H202.732V122.495H219.794L258.806 161.8V217.408H272.999V220.434H258.806V236.999H255.789V220.434H162.357V236.999H159.338V220.434H106.281V236.999H103.263V220.434H30.018V236.999H26.9995V141.304L103.262 87.0667L103.263 66ZM103.263 90.7803L30.0175 142.87V217.41H103.263V90.7803ZM106.28 217.408H159.337V163.05L119.082 122.495H199.712V69.0253H106.28V217.408ZM162.355 163.938V217.408H255.788V163.938H162.355ZM253.665 160.911H161.473L126.345 125.521H218.538L253.665 160.911ZM197.467 178.99H222.917V204.615H197.467V178.99ZM200.486 182.016V201.588H219.898V182.016H200.486Z" fill="#353535"/>
</svg>
