<svg width="50" height="46" viewBox="0 0 50 46" fill="none" xmlns="http://www.w3.org/2000/svg">
<path d="M46.5413 28.2813L37.1656 24.4164C35.7736 23.8483 34.1795 23.893 32.8269 24.5378C31.4742 25.1827 30.5078 26.359 30.1961 27.7394C30.0026 28.6262 29.3403 29.3632 28.4344 29.6997C27.5856 30.0224 26.6193 29.9329 25.8563 29.4606C23.0436 27.2978 20.4543 24.897 18.1219 22.2887C17.6125 21.5812 17.516 20.6852 17.8641 19.8981C18.227 19.0581 19.0217 18.444 19.9781 18.2645C21.4668 17.9755 22.7353 17.0793 23.4309 15.8251C24.1262 14.5708 24.1744 13.0926 23.5617 11.8019L19.3422 3.06004C18.8384 1.98692 17.9141 1.13092 16.756 0.664954C15.598 0.199111 14.2927 0.157929 13.1032 0.549907L3.61566 3.57803C2.57369 3.90857 1.67829 4.54822 1.06779 5.39805C0.457286 6.24805 0.165786 7.26074 0.238294 8.27959C0.754286 14.7494 2.92491 21.0122 6.57063 26.5491C10.2163 32.0864 15.2322 36.738 21.2029 40.1197C27.1736 43.5015 33.9272 45.5155 40.9039 45.9954H41.2649C42.3101 45.9849 43.3256 45.6723 44.1699 45.1007C45.0143 44.5293 45.645 43.7277 45.9742 42.8079L49.2485 34.0422C49.6637 32.9424 49.6155 31.7376 49.1135 30.6693C48.6115 29.601 47.6928 28.7479 46.5415 28.2809L46.5413 28.2813ZM47.6241 33.5406L44.3499 42.3063C44.1175 42.9399 43.6671 43.4853 43.0676 43.8582C42.4682 44.2312 41.7531 44.411 41.0327 44.3702C34.3319 43.9107 27.8455 41.9786 22.1095 38.7334C16.3739 35.4885 11.5536 31.0239 8.04781 25.7089C4.54193 20.3938 2.4511 14.3813 1.94831 8.16827C1.90284 7.49987 2.0962 6.83632 2.4985 6.28016C2.90097 5.72418 3.48983 5.30666 4.17412 5.09233L13.6272 2.05621C14.41 1.79823 15.269 1.82495 16.0313 2.13109C16.7937 2.43722 17.4024 2.99983 17.7351 3.70575L21.9202 12.3996C22.3253 13.2487 22.2951 14.2221 21.838 15.0483C21.3807 15.8744 20.5457 16.4648 19.5655 16.6549C18.0491 16.9432 16.7883 17.9151 16.2054 19.2447C15.6292 20.5337 15.7839 22.0041 16.6179 23.1654C19.082 25.9523 21.8365 28.5068 24.8422 30.7916C26.0946 31.5648 27.6803 31.7083 29.0703 31.1741C30.5042 30.6335 31.5523 29.4644 31.8633 28.0583C32.0714 27.148 32.7125 26.3739 33.6073 25.9529C34.5021 25.5319 35.5545 25.509 36.4696 25.8908L45.8452 29.7557C46.6011 30.0655 47.2038 30.6274 47.5334 31.3302C47.863 32.0329 47.8954 32.825 47.6241 33.5488L47.6241 33.5406Z" fill="white"/>
</svg>
