<svg width="300" height="300" viewBox="0 0 300 300" fill="none" xmlns="http://www.w3.org/2000/svg">
<path fill-rule="evenodd" clip-rule="evenodd" d="M150 45L165.797 66.9638H262.087L270 122.184H262.285V246.059H269.77V257.998H30.2305V246.059H37.7157V122.184H30.001L37.914 66.9638H134.204L150 45ZM132.057 69.9483H40.5117L33.4532 119.201H96.6357L132.057 69.9483ZM94.4867 122.186H40.7092V246.061H120.057V140.096H179.942V246.061H259.289V122.186H205.512L208.96 126.981L200.58 133.246L149.997 63.5413L99.415 133.246L91.035 126.981L94.4867 122.186ZM203.367 119.201H266.549L259.491 69.9488H167.946L203.367 119.201ZM179.943 249.046V255.016H266.778V249.046H179.943ZM176.949 255.016V143.081H123.051V255.016H176.949ZM120.059 255.016V249.046H33.2237V255.016H120.059ZM150.001 50.1235L95.1812 126.346L98.779 129.037L150.001 58.449L201.224 129.037L204.822 126.346L150.001 50.1235ZM130.033 114.534C125.354 118.661 123.053 123.51 123.053 126.662V134.125H176.95V126.662C176.95 120.138 168.758 107.259 150.003 107.259C141.412 107.259 134.647 110.466 130.035 114.534L130.033 114.534ZM128.049 112.298C133.168 107.783 140.626 104.275 150.001 104.275C170.171 104.275 179.944 118.26 179.944 126.661V137.109H120.059V126.661C120.059 122.351 122.997 116.753 128.049 112.298ZM129.137 128.155H170.865C170.549 125.587 169.41 122.285 166.853 119.452C163.808 116.079 158.62 113.23 150 113.23C141.38 113.23 136.193 116.079 133.148 119.452C130.59 122.285 129.452 125.587 129.136 128.155H129.137ZM130.923 117.454C134.615 113.366 140.657 110.244 150.001 110.244C159.346 110.244 165.388 113.365 169.079 117.454C172.728 121.496 173.955 126.344 173.955 129.647V131.139H126.048V129.647C126.048 126.344 127.275 121.496 130.924 117.454H130.923ZM50.0206 137.109H109.248L114.488 158.003H109.576V241.583H49.6914V158.003H44.7794L50.0206 137.109ZM52.6856 158.003V238.598H78.1381V158.003H52.6856ZM81.1331 158.003V238.598H106.583V158.003H81.1331ZM52.3581 140.094L48.6159 155.019H110.656L106.913 140.094H52.3581ZM190.751 137.109H249.978L255.218 158.003H250.306V241.583H190.421V158.003H185.509L190.751 137.109ZM193.417 158.003V238.598H218.867V158.003H193.417ZM221.862 158.003V238.598H247.314V158.003H221.862ZM193.089 140.094L189.346 155.019H251.386L247.644 140.094H193.089ZM127.544 147.556H172.459V222.181H127.544V147.556ZM130.538 150.541V219.194H148.504V150.541H130.538ZM151.498 150.541V219.194H169.464V150.541H151.498Z" fill="#353535"/>
</svg>
